 http://img209.imageshack.us/img209/8629/vlcsnap2010111423h14m37.png
 
http://img837.imageshack.us/img837/8496/vlcsnap2010111423h17m01.png
 
http://img253.imageshack.us/img253/7905/vlcsnap2010111423h15m54.png
 
http://img573.imageshack.us/img573/8475/vlcsnap2010111423h20m35.png
 
http://img87.imageshack.us/img87/9831/vlcsnap2010111423h20m58.png
 
http://img140.imageshack.us/img140/2928/vlcsnap2010111423h23m06.png

Format;Avi

File Size:912mb

Video: ID : 0
Format : MPEG-4 Visual
Format profile : Simple@L3
Format settings, BVOP : No
Format settings, QPel : No
Format settings, GMC : No warppoints
Format settings, Matrix : Default (H.263)
Codec ID : XVID
Codec ID/Hint : XviD
Duration : 1h 25mn
Bit rate : 1 229 Kbps
Width : 720 pixels
Height : 394 pixels
Display aspect ratio : 16:9
Frame rate : 25.000 fps
Color space : YUV
Chroma subsampling : 4:2:0
Bit depth : 8 bits
Scan type : Progressive
Bits/(Pixel*Frame) : 0.173
Stream size : 749 MiB (82%)
Writing library : XviD 1.2.1 (UTC 2008-12-04)

Audio: Audio
ID : 1
Format : AC-3
Format/Info : Audio Coding 3
Mode extension : CM (complete main)
Codec ID : 2000
Duration : 1h 25mn
Bit rate mode : Constant
Bit rate : 256 Kbps
Channel(s) : 6 channels
Channel positions : Front: L C R, Side: L R, LFE
Sampling rate : 48.0 KHz
Bit depth : 16 bits
Stream size : 156 MiB (17%)
Alignment : Aligned on interleaves
Interleave, duration : 40 ms (1.00 video frame)
Interleave, preload duration : 512 ms


Duration:1:25

Release Date:2010

Language:English